<svg xmlns="http://www.w3.org/2000/svg" viewBox="0 0 1600 2560" width="1600" height="2560" preserveAspectRatio="xMidYMid meet" shape-rendering="geometricPrecision">
  <g id="background"><rect x="0" y="0" width="1600" height="2560" fill="#F5C518"/></g>
  <g id="symbol-fragments" transform="rotate(6, 800, 850)">
    <polygon points="238,249 1656,166 1585,237" fill="#111111"/>
    <polygon points="238,249 293,180 208,265" fill="#111111"/>
    <polygon points="238,249 843,1183 739,1287" fill="#111111"/>
    <polygon points="238,249 525,452 477,499" fill="#111111"/>
    <polygon points="238,249 1122,593 1060,655" fill="#D62B2B"/>
    <polygon points="238,249 275,173 212,236" fill="#111111"/>
    <polygon points="238,249 303,197 202,298" fill="#111111"/>
    <polygon points="238,249 330,222 269,284" fill="#111111"/>
    <polygon points="238,249 251,471 213,509" fill="#111111"/>
    <polygon points="238,249 288,162 250,201" fill="#D62B2B"/>
    <polygon points="238,249 330,190 276,243" fill="#111111"/>
    <polygon points="238,249 720,783 657,845" fill="#111111"/>
    <polygon points="238,249 273,197 233,237" fill="#111111"/>
    <polygon points="238,249 997,702 940,758" fill="#111111"/>
    <polygon points="238,249 249,208 205,252" fill="#D62B2B"/>
    <polygon points="142,296 178,216 219,175 325,186 327,260 300,303 211,307" fill="#111111"/>
  </g>
  <g id="title-letterforms">
    <text x="120" y="1510" font-family="Arial Black, Arial, sans-serif" font-size="250" font-weight="900" letter-spacing="0" fill="#111111" textLength="1300" lengthAdjust="spacingAndGlyphs">CONTEMPORARY</text>
    <text x="120" y="1768" font-family="Arial Black, Arial, sans-serif" font-size="250" font-weight="900" letter-spacing="0" fill="#D62B2B" textLength="1300" lengthAdjust="spacingAndGlyphs">MATHEMATICS</text>
  </g>
</svg>
